<mxfile host="app.diagrams.net" modified="2024-02-26T05:01:06.618Z" agent="Mozilla/5.0 (X11; Linux x86_64; rv:123.0) Gecko/20100101 Firefox/123.0" version="23.1.6" etag="HfSipPp1DFqIrcrLT3qI" type="github">
  <diagram name="Page-1" id="F6Z5G4WK3zzTjrr6CZPQ">
    <mxGraphModel>
      <root>
        <mxCell id="0" />
        <mxCell id="1" parent="0" />
      </root>
    </mxGraphModel>
  </diagram>
</mxfile>
